# xmcd CD database file
#
# Track frame offsets:
#	150
#	12438
#	29327
#	43003
#	58414
#	70855
#	92003
#	109356
#	125812
#	140975
#
# Disc length: 2064 seconds
#
# Revision: 0
# Processed by: cddbd v1.5.2PL0 Copyright (c) Steve Scherf et al.
# Submitted via: CDex 1.51
#
DISCID=9c080e0a
DTITLE=Morgana King - Miss Morgana King
DYEAR=1965
DGENRE=Jazz
TTITLE0=Try To Remember (From "The Fantasticks")
TTITLE1=All Blues
TTITLE2=Cuore Di Mama
TTITLE3=Sometimes I Feel Like A Motherless Child
TTITLE4=Bluesette
TTITLE5=I'll Follow You
TTITLE6=Meditation
TTITLE7=Easy Living
TTITLE8=Who Can I Turn To (From "The Rear Of The Greasepaint")
TTITLE9=The Night Has A Thousand Eyes
EXTD=YEAR: 1965
EXTT0=
EXTT1=
EXTT2=
EXTT3=
EXTT4=
EXTT5=
EXTT6=
EXTT7=
EXTT8=
EXTT9=
PLAYORDER=
